<svg width="32" height="32" viewBox="0 0 32 32" fill="none" xmlns="http://www.w3.org/2000/svg">
<path d="M16.4532 12.0409C14.2244 12.0409 12.4055 13.8598 12.4055 16.0885C12.4055 18.3173 14.2244 20.1362 16.4532 20.1362C18.682 20.1362 20.5008 18.3173 20.5008 16.0885C20.5008 13.8598 18.682 12.0409 16.4532 12.0409ZM28.5931 16.0885C28.5931 14.4124 28.6082 12.7514 28.5141 11.0783C28.42 9.13499 27.9766 7.41027 26.5556 5.98919C25.1315 4.56508 23.4098 4.12479 21.4664 4.03066C19.7903 3.93653 18.1293 3.95171 16.4562 3.95171C14.7801 3.95171 13.1191 3.93653 11.446 4.03066C9.50267 4.12479 7.77794 4.56812 6.35687 5.98919C4.93275 7.4133 4.49246 9.13499 4.39833 11.0783C4.3042 12.7545 4.31938 14.4154 4.31938 16.0885C4.31938 17.7617 4.3042 19.4256 4.39833 21.0988C4.49246 23.0421 4.93579 24.7668 6.35687 26.1879C7.78098 27.612 9.50267 28.0523 11.446 28.1464C13.1222 28.2406 14.7831 28.2254 16.4562 28.2254C18.1324 28.2254 19.7933 28.2406 21.4664 28.1464C23.4098 28.0523 25.1345 27.609 26.5556 26.1879C27.9797 24.7638 28.42 23.0421 28.5141 21.0988C28.6113 19.4256 28.5931 17.7647 28.5931 16.0885ZM16.4532 22.3164C13.0068 22.3164 10.2253 19.535 10.2253 16.0885C10.2253 12.6421 13.0068 9.86071 16.4532 9.86071C19.8996 9.86071 22.681 12.6421 22.681 16.0885C22.681 19.535 19.8996 22.3164 16.4532 22.3164ZM22.9361 11.0601C22.1314 11.0601 21.4816 10.4103 21.4816 9.60565C21.4816 8.80098 22.1314 8.15117 22.9361 8.15117C23.7407 8.15117 24.3906 8.80098 24.3906 9.60565C24.3908 9.79672 24.3533 9.98596 24.2803 10.1625C24.2073 10.3391 24.1002 10.4995 23.9651 10.6347C23.83 10.7698 23.6695 10.8769 23.493 10.9499C23.3164 11.0229 23.1272 11.0604 22.9361 11.0601Z" fill="#E9E9E9"/>
</svg>
