<svg width="35" height="34" viewBox="0 0 35 34" fill="none" xmlns="http://www.w3.org/2000/svg">
<path d="M26.0635 7.06794H9.57396C6.33739 7.06794 3.71564 9.66143 3.71564 12.8612V21.0134C3.71564 24.2132 6.33881 26.8082 9.57396 26.8082H26.0635C29.3 26.8082 31.9218 24.2132 31.9218 21.0134V12.8612C31.9218 9.66143 29.2986 7.06653 26.0635 7.06653V7.06794ZM22.1019 17.3331L14.3892 20.9724C14.3422 20.9951 14.2902 21.0055 14.238 21.0026C14.1859 20.9998 14.1354 20.9838 14.0911 20.9561C14.0468 20.9285 14.0102 20.8901 13.9847 20.8445C13.9593 20.7989 13.9458 20.7476 13.9454 20.6954V13.192C13.9464 13.1395 13.9606 13.0881 13.9867 13.0426C14.0129 12.9971 14.0501 12.959 14.095 12.9317C14.1399 12.9045 14.1909 12.8891 14.2433 12.8869C14.2958 12.8847 14.3479 12.8958 14.3949 12.9192L22.1089 16.7847C22.1603 16.8103 22.2034 16.8499 22.2333 16.8989C22.2632 16.948 22.2787 17.0044 22.2779 17.0618C22.2772 17.1192 22.2603 17.1753 22.2291 17.2235C22.198 17.2717 22.1539 17.3102 22.1019 17.3345V17.3331Z" fill="#DF2424"/>
</svg>
